<?xml version="1.0" encoding="utf-8"?>
<!-- Generator: Adobe Illustrator 20.0.0, SVG Export Plug-In . SVG Version: 6.00 Build 0)  -->
<svg version="1.1" xmlns="http://www.w3.org/2000/svg" xmlns:xlink="http://www.w3.org/1999/xlink" x="0px" y="0px"
	 viewBox="0 0 1000 1000" style="enable-background:new 0 0 1000 1000;" xml:space="preserve">
<style type="text/css">
	.st0{fill:#E6E7E8;}
	.st1{fill:#F2AC8C;}
	.st2{fill:none;stroke:#D29079;stroke-width:8;stroke-linecap:round;stroke-linejoin:round;stroke-miterlimit:10;}
	.st3{fill:#D29079;}
	.st4{fill:#DFF3FD;}
	.st5{fill:#BDD7E2;}
	.st6{fill:#FFFFFF;stroke:#000000;stroke-width:3;stroke-linecap:round;stroke-linejoin:round;stroke-miterlimit:10;}
	.st7{fill:#F79968;}
	.st8{fill:#ED8E64;}
	.st9{fill:#E57C56;}
	.st10{fill:#A9ACAE;}
	.st11{fill:#939598;}
	.st12{fill:none;stroke:#DB7252;stroke-width:8;stroke-linecap:round;stroke-linejoin:round;stroke-miterlimit:10;}
	.st13{fill:#BCBEC0;}
	.st14{fill:#0A1518;}
	.st15{fill:#082630;}
	.st16{fill:#A1BFC9;}
	.st17{fill:#58818C;}
	.st18{fill:none;stroke:#6B4023;stroke-width:8;stroke-linecap:round;stroke-linejoin:round;stroke-miterlimit:10;}
	.st19{fill:none;stroke:#082630;stroke-width:8;stroke-linecap:round;stroke-linejoin:round;stroke-miterlimit:10;}
	.st20{fill:#6D6E71;}
	.st21{fill:#F1F2F2;}
	.st22{fill:#192425;}
	.st23{fill:#7C4B2E;}
	.st24{fill:#6B3F23;}
	.st25{fill:#D1D3D4;}
	.st26{display:none;}
	.st27{display:inline;}
	.st28{display:inline;fill:none;stroke:#DB7252;stroke-width:8;stroke-linecap:round;stroke-linejoin:round;stroke-miterlimit:10;}
	.st29{clip-path:url(#SVGID_4_);fill:#192425;}
	.st30{clip-path:url(#SVGID_4_);fill:#FFFFFF;}
	.st31{clip-path:url(#SVGID_4_);fill:#FF5959;}
</style>
<g id="Layer_1">
	<path class="st0" d="M485.9,392.4c75.1,0,136-61,135.8-136.2c-0.3-75-62.2-135.3-137.2-135.3H392c-54.8,0-99.2,44.4-99.2,99.2
		v147.8c0,13.5,11,24.5,24.5,24.5H485.9z"/>
	<path class="st0" d="M361.3,763.9l0-52l0-36.7c-9.8-0.3-19.7,3.3-27.2,10.7L187.6,830.1c-14.7,14.5-14.9,38.1-0.4,52.8
		c14.5,14.7,38.1,14.9,52.8,0.4L361.3,763.9z"/>
	<g>
		<path class="st1" d="M446.4,617.5v44.5c0,0-2.4,40.9,40.9,40.9s40.9-40.9,40.9-40.9v-44.5H446.4z"/>
		<path class="st2" d="M501,652.4c-7.6,7.6-19.9,7.6-27.5,0"/>
		<path class="st3" d="M487.4,638.7c-24.2,0-40.9-10.6-40.9-10.6v-10.6c0,0,16.7,10.6,40.9,10.6h0c24.2,0,40.9-10.6,40.9-10.6v10.6
			C528.3,628.1,511.6,638.7,487.4,638.7"/>
	</g>
	<path class="st1" d="M369.7,307.7c-8.4,0-15.1,6.8-15.1,15.1V513c0,9.3,2.9,18.4,8.3,26c19.4,27.2,70.1,90.1,125.3,90.1
		S594,566.2,613.4,539c5.4-7.6,8.3-16.7,8.3-26V322.8c0-8.4-6.8-15.1-15.1-15.1H369.7z"/>
	<path class="st2" d="M468.9,447.3l-2.9,33.6c-0.4,4.7,3.3,8.7,8,8.7h28.2c4.7,0,8.4-4,8-8.7l-2.9-33.6"/>
	<g>
		<path class="st18" d="M533.2,371.1c13.7-13.7,36-13.7,49.7,0"/>
		<path class="st18" d="M393.3,371.1c13.7-13.7,36-13.7,49.7,0"/>
		<path class="st19" d="M400.3,426.1c0-9.9,8-17.9,17.9-17.9s17.9,8,17.9,17.9"/>
		<path class="st19" d="M540.2,426.1c0-9.9,8-17.9,17.9-17.9s17.9,8,17.9,17.9"/>
	</g>
	<g>
		<path class="st3" d="M621.7,422.6h14.1c12.7,0,22.7,11,21.3,23.7c-2.5,23.3-10.5,55.5-35.4,55.5V422.6z"/>
		<path class="st3" d="M354.6,422.6h-14.1c-12.7,0-22.7,11-21.3,23.7c2.5,23.3,10.5,55.5,35.4,55.5V422.6z"/>
	</g>
	<g>
		<path class="st20" d="M446.4,655.3v6.8c0,0-0.1,2.1,0.2,5.3l-9.1-6.5c-2-2-0.6-5.5,2.3-5.5L446.4,655.3L446.4,655.3z"/>
	</g>
	<g>
		<path class="st20" d="M528.3,655.3v6.8c0,0,0.1,2.1-0.2,5.3l9.1-6.5c2-2,0.6-5.5-2.3-5.5L528.3,655.3L528.3,655.3z"/>
	</g>
	<path class="st0" d="M407.3,675.2l7.9-18.6c1.5-4,5.3-6.6,9.6-6.6h21.6v5.3h-6.6c-2.9,0-4.3,3.5-2.3,5.5l122.7,87.5V1000h-199
		V675.2H407.3z"/>
	<path class="st21" d="M567.4,675.2l-7.9-18.6c-1.5-4-5.3-6.6-9.6-6.6h-21.7v5.3h6.7c2.9,0,4.3,3.5,2.3,5.5L428,738.6
		c-8.5,6.1-13.5,15.8-13.5,26.3V1000h199V675.2H567.4z"/>
	<g>
		<circle class="st22" cx="441.6" cy="748.2" r="4.6"/>
		<circle class="st22" cx="441.6" cy="780.7" r="4.6"/>
		<circle class="st22" cx="441.6" cy="813.3" r="4.6"/>
		<circle class="st22" cx="441.6" cy="845.8" r="4.6"/>
		<circle class="st22" cx="441.6" cy="878.3" r="4.6"/>
		<circle class="st22" cx="441.6" cy="910.9" r="4.6"/>
		<circle class="st22" cx="441.6" cy="943.4" r="4.6"/>
		<circle class="st22" cx="441.6" cy="975.9" r="4.6"/>
	</g>
	<path class="st1" d="M304.2,1000L187.5,883.3c-14.6-14.6-14.6-38.3,0-52.9c14.6-14.6,38.3-14.6,52.9,0l120.9,120.9v48.7L304.2,1000
		z"/>
	<path class="st21" d="M734.8,883.3c14.7,14.5,38.3,14.3,52.8-0.4s14.3-38.3-0.4-52.8L640.7,685.9c-7.5-7.4-17.4-11-27.2-10.7
		l0,36.7l0,52L734.8,883.3z"/>
	<path class="st1" d="M670.7,1000l116.7-116.7c14.6-14.6,14.6-38.3,0-52.9c-14.6-14.6-38.3-14.6-52.9,0l-121,121v48.5H670.7z"/>
	<polygon class="st3" points="621.1,943.8 621.1,1000 613.5,1000 613.5,951.5 	"/>
	<polygon class="st3" points="353.7,943.8 353.7,1000 361.3,1000 361.3,951.5 	"/>
	<g>
		<path class="st23" d="M581,510.2c-7.5,6.1-23.4,14.2-42-4.5c-26.1-26.1-50.8-11.7-50.8-11.7s-24.7-14.4-50.8,11.7
			c-18.7,18.7-34.5,10.6-42,4.5c-1.9-1.6-4.7-0.1-4.5,2.4c1.1,13.3,8.2,41,47.8,41c25.9,0,49.6-18,49.6-28.3
			c0,10.3,23.7,28.3,49.6,28.3c39.6,0,46.6-27.7,47.8-41C585.7,510.2,582.9,508.7,581,510.2z"/>
		<path class="st24" d="M584.4,510.2c-3.1,14.1-13.3,33.9-46.7,33.9c-23,0-44.2-14.1-48.7-24.5c-0.3-0.8-1.5-0.8-1.8,0
			c-4.6,10.4-25.8,24.5-48.7,24.5c-33.4,0-43.7-19.8-46.7-33.9c-0.7,0.5-1.1,1.4-1.1,2.4c1.1,13.3,8.2,41,47.8,41
			c25.9,0,49.6-18,49.6-28.3c0,10.3,23.7,28.3,49.6,28.3c39.6,0,46.6-27.7,47.8-41C585.6,511.6,585.1,510.7,584.4,510.2z"/>
	</g>
	<path class="st2" d="M501,547.9c-7.6,7.6-19.9,7.6-27.5,0"/>
	<path class="st23" d="M621.7,422.6v-99.7c0-8.4-6.8-15.1-15.1-15.1h-8.9c0,0,15.8,21.3,15.8,88.6s0,77.3,0,77.3h8.2V422.6z"/>
	<path class="st23" d="M354.6,422.6v-99.7c0-8.4,6.8-15.1,15.1-15.1h8.9c0,0-15.8,21.3-15.8,88.6s0,77.3,0,77.3h-8.2V422.6z"/>
	<path class="st24" d="M369.7,307.7c-8.4,0-15.1,6.8-15.1,15.1V346c0,0,19.4,0,72.4,0c90,0,131.1-38.3,131.1-38.3H369.7z"/>
	<path class="st21" d="M621.7,322.8c0-8.4-6.8-15.1-15.1-15.1H369.7c-8.4,0-15.1,6.8-15.1,15.1v-64.9c0-17.9,14.5-32.3,32.3-32.3
		h202c17.8,0,32.2,14.4,32.3,32.2L621.7,322.8z"/>
	<path class="st25" d="M354.6,257.9c0-17.9,14.5-32.3,32.3-32.3h-8.3c-17.9,0-32.3,14.5-32.3,32.3v134.4h8.3V257.9z"/>
</g>
<g id="exp1" class="st26">
</g>
<g id="exp2" class="st26">
</g>
<g id="exp3_1_">
</g>
<g id="Layer_5">
</g>
</svg>
